<?xml version="1.0" encoding="UTF-8" standalone="no"?>
<!--Generator: Apple Native CoreSVG 341-->

<svg
   version="1.1"
   viewBox="0 0 87.005462 74.934883"
   id="svg39"
   sodipodi:docname="hand.draw.svg"
   width="87.005463"
   height="74.934883"
   inkscape:version="1.4.2 (ebf0e940, 2025-05-08)"
   xmlns:inkscape="http://www.inkscape.org/namespaces/inkscape"
   xmlns:sodipodi="http://sodipodi.sourceforge.net/DTD/sodipodi-0.dtd"
   xmlns="http://www.w3.org/2000/svg"
   xmlns:svg="http://www.w3.org/2000/svg">
  <defs
     id="defs39" />
  <sodipodi:namedview
     id="namedview39"
     pagecolor="#ffffff"
     bordercolor="#666666"
     borderopacity="1.0"
     inkscape:showpageshadow="2"
     inkscape:pageopacity="0.0"
     inkscape:pagecheckerboard="0"
     inkscape:deskcolor="#d1d1d1"
     inkscape:zoom="5.7048518"
     inkscape:cx="56.267895"
     inkscape:cy="50.483345"
     inkscape:window-width="1760"
     inkscape:window-height="1027"
     inkscape:window-x="0"
     inkscape:window-y="25"
     inkscape:window-maximized="0"
     inkscape:current-layer="svg39" />
  <!--glyph: "101BC8", point size: 100.0, font version: "20.0d10e1", template writer version: "138.0.0"-->
  <style
     id="style1">.monochrome-0 {-sfsymbols-motion-group:1;-sfsymbols-layer-tags:hand.draw}
.monochrome-1 {opacity:0.0;-sfsymbols-clear-behind:true;-sfsymbols-motion-group:0;-sfsymbols-layer-tags:hand.draw}
.monochrome-2 {-sfsymbols-motion-group:0;-sfsymbols-layer-tags:hand.draw}

.multicolor-0:tintColor {-sfsymbols-motion-group:1;-sfsymbols-layer-tags:hand.draw}
.multicolor-1:tintColor {opacity:0.0;-sfsymbols-clear-behind:true;-sfsymbols-motion-group:0;-sfsymbols-layer-tags:hand.draw}
.multicolor-2:tintColor {-sfsymbols-motion-group:0;-sfsymbols-layer-tags:hand.draw}

.hierarchical-0:secondary {-sfsymbols-motion-group:1;-sfsymbols-layer-tags:hand.draw}
.hierarchical-1:primary {opacity:0.0;-sfsymbols-clear-behind:true;-sfsymbols-motion-group:0;-sfsymbols-layer-tags:hand.draw}
.hierarchical-2:primary {-sfsymbols-motion-group:0;-sfsymbols-layer-tags:hand.draw}

.SFSymbolsPreviewWireframe {fill:none;opacity:1.0;stroke:black;stroke-width:0.5}
</style>
  <g
     id="g41"
     transform="translate(-1503.7458,-620.1185)">
    <path
       d="m 1505.3246,667.83847 c -1.1882,-0.48008 -1.5839,-1.40626 -1.5787,-3.69485 0,-1.17461 0.1627,-3.32218 0.3558,-4.77238 1.7002,-12.7715 8.0963,-22.76299 19.2101,-30.00853 2.6501,-1.72775 3.6944,-2.04684 4.5114,-1.37856 0.4229,0.34591 1.0166,2.7127 0.8133,3.24237 -0.072,0.18738 -1.4359,1.22026 -3.031,2.29529 -5.4238,3.65519 -10.2494,8.94537 -12.9839,14.23408 -2.3485,4.54208 -4.1477,11.69172 -4.1657,16.55308 -0.01,1.84212 -0.5331,2.96403 -1.5993,3.40953 -0.4777,0.19961 -0.9001,0.35586 -0.9385,0.34721 -0.038,-0.009 -0.3056,-0.1109 -0.5935,-0.22724 z"
       id="path40"
       style="stroke-width:0.247897" />
    <path
       d="m 1558.919,694.82783 c -5.7029,-0.83176 -11.1665,-3.67684 -16.0884,-8.37773 -3.133,-2.99232 -17.1521,-19.78637 -18.2739,-21.89106 -1.0878,-2.04085 -1.3062,-4.54216 -0.5295,-6.06449 0.8249,-1.61705 1.6946,-2.48038 3.3135,-3.28936 1.1527,-0.57599 1.8499,-0.75749 2.9029,-0.75566 2.1539,0.004 3.4605,0.77461 6.4632,3.81331 2.5206,2.55071 3.475,3.14455 3.475,2.16209 0,-0.25712 -2.3426,-6.90729 -5.2058,-14.77815 -3.9581,-10.88074 -5.2062,-14.58609 -5.2074,-15.45986 -8e-4,-0.63207 -0.1771,-1.48387 -0.3917,-1.8929 -1.075,-2.04911 0.8837,-5.67889 3.8853,-7.19988 3.8929,-1.97269 7.7854,-0.90772 10.148,2.77645 0.276,0.43032 1.5646,3.66178 2.8636,7.18101 1.299,3.51924 2.3943,6.4311 2.434,6.47079 0.04,0.0397 0.7679,-0.28665 1.6183,-0.7252 2.1831,-1.12593 4.1616,-1.23865 6.1072,-0.34794 0.7803,0.35724 1.7839,1.03665 2.2301,1.50981 l 0.8114,0.86028 1.4419,-0.86829 c 1.8319,-1.10309 3.0958,-1.44184 4.7482,-1.27255 1.4084,0.1443 3.2561,1.06962 3.8614,1.93376 0.3611,0.51563 0.3768,0.51622 2.5523,0.096 2.6363,-0.50924 4.3263,-0.28882 6.699,0.87374 1.9604,0.96051 4.1452,3.30662 5.4869,5.89208 1.0719,2.06565 4.6509,11.87743 5.4621,14.97421 1.2988,4.9588 1.3695,11.11032 0.1747,15.19401 -2.1736,7.42872 -6.7591,12.63093 -14.3002,16.22328 -5.473,2.60713 -11.6259,3.69972 -16.6821,2.96227 z m 6.1927,-5.19735 c 4.0459,-0.56273 8.5107,-2.19267 11.648,-4.25226 7.8762,-5.17069 10.7367,-13.94685 7.9403,-24.36185 -0.8469,-3.15426 -3.7522,-11.08748 -4.7902,-13.08036 -0.9557,-1.83469 -2.3343,-3.40355 -3.5375,-4.02575 -0.7623,-0.3942 -2.9568,-0.56269 -3.4399,-0.2641 -0.1533,0.0948 0.1028,1.15094 0.6671,2.75046 0.8598,2.43728 0.893,2.63844 0.5407,3.2784 -0.2065,0.37499 -0.7921,0.8862 -1.3015,1.13603 -0.8979,0.44039 -0.9545,0.44039 -1.8557,0 -0.8878,-0.43377 -0.9884,-0.61565 -2.2333,-4.03746 -0.8234,-2.2631 -1.5472,-3.8374 -1.9646,-4.27313 -1.1634,-1.21427 -3.0269,-1.16303 -4.6379,0.12751 l -0.7172,0.57453 1.3922,3.8691 c 1.2275,3.41111 1.3606,3.96013 1.1242,4.63825 -0.4721,1.3541 -2.5722,1.96531 -3.6558,1.06396 -0.3282,-0.27297 -1.2053,-2.31747 -2.3658,-5.51419 -1.9112,-5.26458 -2.3452,-5.99574 -3.771,-6.35361 -0.8801,-0.22089 -2.457,0.30343 -3.3009,1.09751 l -0.7104,0.6685 1.8233,4.83399 c 1.0028,2.65869 1.8294,5.18149 1.8368,5.60621 0.028,1.5946 -1.7028,2.6984 -3.2868,2.09617 -0.9036,-0.34354 -0.8789,-0.2833 -6.5076,-15.85082 -2.7889,-7.71339 -4.9095,-13.21524 -5.2249,-13.55606 -1.5727,-1.69954 -4.7989,-0.38456 -4.7989,1.95603 0,0.33202 3.1793,9.34407 7.0651,20.02677 3.9674,10.90728 7.065,19.78608 7.065,20.25101 0,1.23471 -1.1317,2.27718 -2.4722,2.27718 -0.5626,0 -1.3242,-0.15988 -1.6924,-0.35528 -0.3681,-0.19541 -3.063,-2.75736 -5.9886,-5.69322 -3.4166,-3.42868 -5.5543,-5.38957 -5.9765,-5.4823 -0.9005,-0.19778 -2.5683,0.51422 -2.9721,1.26886 -0.5424,1.01337 -0.3633,2.28134 0.4938,3.49734 1.7475,2.47924 14.7008,17.67885 16.4891,19.34872 5.8453,5.45787 12.1988,7.69598 19.1161,6.73386 z"
       id="path41"
       style="stroke-width:0.247897" />
  </g>
</svg>
