<?xml version="1.0" encoding="UTF-8" standalone="no"?>
<!--Generator: Apple Native CoreSVG 341-->

<svg
   version="1.1"
   viewBox="0 0 82.091759 82.189453"
   id="svg54"
   sodipodi:docname="wand.and.rays.inverse.svg"
   width="82.091759"
   height="82.189453"
   inkscape:version="1.4.2 (ebf0e940, 2025-05-08)"
   xmlns:inkscape="http://www.inkscape.org/namespaces/inkscape"
   xmlns:sodipodi="http://sodipodi.sourceforge.net/DTD/sodipodi-0.dtd"
   xmlns="http://www.w3.org/2000/svg"
   xmlns:svg="http://www.w3.org/2000/svg">
  <defs
     id="defs54" />
  <sodipodi:namedview
     id="namedview54"
     pagecolor="#ffffff"
     bordercolor="#FF0000"
     borderopacity="1.0"
     inkscape:showpageshadow="2"
     inkscape:pageopacity="0.0"
     inkscape:pagecheckerboard="0"
     inkscape:deskcolor="#FF0000"
     inkscape:zoom="2.8524259"
     inkscape:cx="53.287975"
     inkscape:cy="103.07016"
     inkscape:window-width="1552"
     inkscape:window-height="1027"
     inkscape:window-x="0"
     inkscape:window-y="25"
     inkscape:window-maximized="0"
     inkscape:current-layer="svg54" />
  <!--glyph: "100372", point size: 100.0, font version: "20.0d10e1", template writer version: "138.0.0"-->
  <style
     id="style1">.monochrome-0 {-sfsymbols-motion-group:1;-sfsymbols-layer-tags:wand.and.rays.inverse}
.monochrome-1 {-sfsymbols-variable-threshold:0.87;-sfsymbols-motion-group:0;-sfsymbols-layer-tags:wand.and.rays.inverse}
.monochrome-2 {-sfsymbols-variable-threshold:0.72;-sfsymbols-motion-group:0;-sfsymbols-layer-tags:wand.and.rays.inverse}
.monochrome-3 {-sfsymbols-variable-threshold:0.58;-sfsymbols-motion-group:0;-sfsymbols-layer-tags:wand.and.rays.inverse}
.monochrome-4 {-sfsymbols-variable-threshold:0.44;-sfsymbols-motion-group:0;-sfsymbols-layer-tags:wand.and.rays.inverse}
.monochrome-5 {-sfsymbols-variable-threshold:0.3;-sfsymbols-motion-group:0;-sfsymbols-layer-tags:wand.and.rays.inverse}
.monochrome-6 {-sfsymbols-variable-threshold:0.15;-sfsymbols-motion-group:0;-sfsymbols-layer-tags:wand.and.rays.inverse}
.monochrome-7 {-sfsymbols-variable-threshold:0.0;-sfsymbols-motion-group:0;-sfsymbols-layer-tags:wand.and.rays.inverse}

.multicolor-0:tintColor {-sfsymbols-motion-group:1;-sfsymbols-layer-tags:wand.and.rays.inverse}
.multicolor-1:tintColor {-sfsymbols-variable-threshold:0.87;-sfsymbols-motion-group:0;-sfsymbols-layer-tags:wand.and.rays.inverse}
.multicolor-2:tintColor {-sfsymbols-variable-threshold:0.72;-sfsymbols-motion-group:0;-sfsymbols-layer-tags:wand.and.rays.inverse}
.multicolor-3:tintColor {-sfsymbols-variable-threshold:0.58;-sfsymbols-motion-group:0;-sfsymbols-layer-tags:wand.and.rays.inverse}
.multicolor-4:tintColor {-sfsymbols-variable-threshold:0.44;-sfsymbols-motion-group:0;-sfsymbols-layer-tags:wand.and.rays.inverse}
.multicolor-5:tintColor {-sfsymbols-variable-threshold:0.3;-sfsymbols-motion-group:0;-sfsymbols-layer-tags:wand.and.rays.inverse}
.multicolor-6:tintColor {-sfsymbols-variable-threshold:0.15;-sfsymbols-motion-group:0;-sfsymbols-layer-tags:wand.and.rays.inverse}
.multicolor-7:tintColor {-sfsymbols-variable-threshold:0.0;-sfsymbols-motion-group:0;-sfsymbols-layer-tags:wand.and.rays.inverse}

.hierarchical-0:primary {-sfsymbols-motion-group:1;-sfsymbols-layer-tags:wand.and.rays.inverse}
.hierarchical-1:secondary {-sfsymbols-variable-threshold:0.87;-sfsymbols-motion-group:0;-sfsymbols-layer-tags:wand.and.rays.inverse}
.hierarchical-2:secondary {-sfsymbols-variable-threshold:0.72;-sfsymbols-motion-group:0;-sfsymbols-layer-tags:wand.and.rays.inverse}
.hierarchical-3:secondary {-sfsymbols-variable-threshold:0.58;-sfsymbols-motion-group:0;-sfsymbols-layer-tags:wand.and.rays.inverse}
.hierarchical-4:secondary {-sfsymbols-variable-threshold:0.44;-sfsymbols-motion-group:0;-sfsymbols-layer-tags:wand.and.rays.inverse}
.hierarchical-5:secondary {-sfsymbols-variable-threshold:0.3;-sfsymbols-motion-group:0;-sfsymbols-layer-tags:wand.and.rays.inverse}
.hierarchical-6:secondary {-sfsymbols-variable-threshold:0.15;-sfsymbols-motion-group:0;-sfsymbols-layer-tags:wand.and.rays.inverse}
.hierarchical-7:secondary {-sfsymbols-variable-threshold:0.0;-sfsymbols-motion-group:0;-sfsymbols-layer-tags:wand.and.rays.inverse}

.SFSymbolsPreviewWireframe {fill:none;opacity:1.0;stroke:red;stroke-width:0.5}
</style>
  <g
     id="Regular-S"
     transform="translate(-6.58594,76.4707)"
     style="fill:#FF0000;fill-opacity:1">
    <path
       class="monochrome-0 multicolor-0:tintColor hierarchical-0:primary SFSymbolsPreviewWireframe"
       d="m 84.2773,1.5625 c 1.7579,-1.855469 1.709,-4.73633 0,-6.54297 L 48.0957,-41.2598 c -1.7578,-1.8066 -4.834,-1.8066 -6.4941,0 -1.7578,1.8555 -1.709,4.7364 0,6.4942 L 77.7832,1.5625 c 1.7578,1.80664 4.834,1.75781 6.4941,0 z m -2.6855,-2.63672 c -0.6836,0.683595 -1.5137,0.488282 -2.2949,-0.24414 L 55.957,-24.707 l 2.0508,-2.002 23.3399,23.38869 c 0.7324,0.68359 0.9277,1.5625 0.2441,2.24609 z"
       id="path39"
       style="fill:#FF0000;fill-opacity:1" />
    <path
       class="monochrome-1 multicolor-1:tintColor hierarchical-1:secondary SFSymbolsPreviewWireframe"
       d="m 84.6191,-31.5918 c 2.0997,0 3.8086,-1.7578 3.8086,-3.8086 0,-2.0508 -1.7089,-3.8086 -3.8086,-3.8086 H 72.8516 c -2.0508,0 -3.8086,1.7578 -3.8086,3.8086 0,2.0508 1.7578,3.8086 3.8086,3.8086 z"
       id="path40"
       style="fill:#FF0000;fill-opacity:1" />
    <path
       class="monochrome-2 multicolor-2:tintColor hierarchical-2:secondary SFSymbolsPreviewWireframe"
       d="m 62.6953,-55.8105 c -1.4648,1.4648 -1.4648,3.9062 0,5.371 1.4649,1.4649 3.9551,1.4649 5.3711,0 l 8.3496,-8.3007 c 1.416,-1.4649 1.416,-3.9551 0,-5.42 -1.4648,-1.4648 -3.9062,-1.4648 -5.3711,0 z"
       id="path41"
       style="fill:#FF0000;fill-opacity:1" />
    <path
       class="monochrome-3 multicolor-3:tintColor hierarchical-3:secondary SFSymbolsPreviewWireframe"
       d="m 51.4648,-72.4121 c 0,-2.0508 -1.7578,-3.8086 -3.8086,-3.8086 -2.0996,0 -3.8085,1.7578 -3.8085,3.8086 v 11.7676 c 0,2.0996 1.7089,3.8086 3.8085,3.8086 2.0508,0 3.8086,-1.709 3.8086,-3.8086 z"
       id="path42"
       style="fill:#FF0000;fill-opacity:1" />
    <path
       class="monochrome-4 multicolor-4:tintColor hierarchical-4:secondary SFSymbolsPreviewWireframe"
       d="m 27.1973,-50.4395 c 1.4648,1.4649 3.9062,1.4649 5.3711,0 1.416,-1.4648 1.416,-3.9062 0,-5.371 l -8.3008,-8.3008 c -1.416,-1.4649 -3.8574,-1.5137 -5.3223,-0.0489 -1.4648,1.4649 -1.4648,3.9063 0,5.3711 z"
       id="path43"
       style="fill:#FF0000;fill-opacity:1" />
    <path
       class="monochrome-5 multicolor-5:tintColor hierarchical-5:secondary SFSymbolsPreviewWireframe"
       d="m 10.6445,-39.209 c -2.05075,0 -3.80856,1.7578 -3.80856,3.8086 0,2.0508 1.75781,3.8086 3.80856,3.8086 h 11.8164 c 2.0508,0 3.8086,-1.7578 3.8086,-3.8086 0,-2.0508 -1.7578,-3.8086 -3.8086,-3.8086 z"
       id="path44"
       style="fill:#FF0000;fill-opacity:1" />
    <path
       class="monochrome-6 multicolor-6:tintColor hierarchical-6:secondary SFSymbolsPreviewWireframe"
       d="m 18.8965,-12.0605 c -1.4649,1.4648 -1.4649,3.9062 -0.0488,5.37105 1.4648,1.46484 3.955,1.51367 5.3711,0.04883 l 8.3496,-8.30078 c 1.416,-1.4648 1.416,-3.9063 0,-5.3711 -1.4161,-1.4648 -3.9063,-1.4648 -5.3711,0 z"
       id="path45"
       style="fill:#FF0000;fill-opacity:1" />
    <path
       class="monochrome-7 multicolor-7:tintColor hierarchical-7:secondary SFSymbolsPreviewWireframe"
       d="m 51.4648,-10.1074 c 0,-2.0996 -1.7578,-3.8086 -3.8086,-3.8086 -2.0996,0 -3.8085,1.709 -3.8085,3.8086 V 1.66016 c 0,2.05078 1.7089,3.80859 3.8085,3.80859 2.0508,0 3.8086,-1.75781 3.8086,-3.80859 z"
       id="path46"
       style="fill:#FF0000;fill-opacity:1" />
  </g>
</svg>
