<?xml version="1.0" encoding="UTF-8" standalone="no"?>
<!--Generator: Apple Native CoreSVG 341-->

<svg
   version="1.1"
   viewBox="0 0 88.048882 83.654312"
   id="svg42"
   sodipodi:docname="printer.svg"
   width="88.048882"
   height="83.654312"
   inkscape:version="1.4.2 (ebf0e940, 2025-05-08)"
   xmlns:inkscape="http://www.inkscape.org/namespaces/inkscape"
   xmlns:sodipodi="http://sodipodi.sourceforge.net/DTD/sodipodi-0.dtd"
   xmlns="http://www.w3.org/2000/svg"
   xmlns:svg="http://www.w3.org/2000/svg">
  <defs
     id="defs42" />
  <sodipodi:namedview
     id="namedview42"
     pagecolor="#ffffff"
     bordercolor="#666666"
     borderopacity="1.0"
     inkscape:showpageshadow="2"
     inkscape:pageopacity="0.0"
     inkscape:pagecheckerboard="0"
     inkscape:deskcolor="#d1d1d1"
     inkscape:zoom="2.0169697"
     inkscape:cx="43.629808"
     inkscape:cy="48.58774"
     inkscape:window-width="1728"
     inkscape:window-height="1027"
     inkscape:window-x="0"
     inkscape:window-y="25"
     inkscape:window-maximized="0"
     inkscape:current-layer="svg42" />
  <!--glyph: "101BF3", point size: 100.0, font version: "20.0d10e1", template writer version: "138.0.0"-->
  <style
     id="style1">.monochrome-0 {-sfsymbols-motion-group:2;-sfsymbols-layer-tags:printer}
.monochrome-1 {-sfsymbols-motion-group:1;-sfsymbols-layer-tags:printer}
.monochrome-2 {opacity:0.0;-sfsymbols-clear-behind:true;-sfsymbols-motion-group:0;-sfsymbols-layer-tags:printer}
.monochrome-3 {-sfsymbols-motion-group:0;-sfsymbols-layer-tags:printer}

.multicolor-0:tintColor {-sfsymbols-motion-group:2;-sfsymbols-layer-tags:printer}
.multicolor-1:tintColor {-sfsymbols-clear-behind:true;-sfsymbols-motion-group:1;-sfsymbols-layer-tags:printer}
.multicolor-2:tintColor {opacity:0.0;-sfsymbols-clear-behind:true;-sfsymbols-motion-group:0;-sfsymbols-layer-tags:printer}
.multicolor-3:tintColor {-sfsymbols-motion-group:0;-sfsymbols-layer-tags:printer}

.hierarchical-0:primary {-sfsymbols-motion-group:2;-sfsymbols-layer-tags:printer}
.hierarchical-1:primary {-sfsymbols-clear-behind:true;-sfsymbols-motion-group:1;-sfsymbols-layer-tags:printer}
.hierarchical-2:primary {opacity:0.0;-sfsymbols-clear-behind:true;-sfsymbols-motion-group:0;-sfsymbols-layer-tags:printer}
.hierarchical-3:primary {-sfsymbols-motion-group:0;-sfsymbols-layer-tags:printer}

.SFSymbolsPreviewWireframe {fill:none;opacity:1.0;stroke:black;stroke-width:0.5}
</style>
  <g
     id="Black-S"
     transform="translate(1471.6244,76.2754)" />
  <g
     id="Regular-S"
     transform="translate(-9.51562,76.2754)"
     style="fill:#000000;fill-opacity:1">
    <path
       class="monochrome-0 multicolor-0:tintColor hierarchical-0:primary SFSymbolsPreviewWireframe"
       d="m 25,-59.2773 h 6.7871 v -5.9571 c 0,-2.8808 1.6113,-4.4433 4.541,-4.4433 H 70.752 c 2.9296,0 4.541,1.5625 4.541,4.4433 v 5.8594 h 6.7382 v -5.3223 c 0,-7.8613 -3.955,-11.3281 -11.3769,-11.3281 H 36.4258 C 29.4434,-76.0254 25,-72.5586 25,-64.6973 Z"
       id="path35"
       style="fill:#000000;fill-opacity:1;-sfsymbols-layer-tags:printer;-sfsymbols-motion-group:2" />
    <path
       class="monochrome-1 multicolor-1:tintColor hierarchical-1:primary SFSymbolsPreviewWireframe"
       d="m 21.6309,-4.10156 h 63.8183 c 7.7149,0 11.8653,-3.95508 11.8653,-11.66994 v -35.791 c 0,-7.7148 -4.1504,-11.6699 -11.8653,-11.6699 H 21.6309 c -7.2754,0 -11.86528,3.9551 -11.86528,11.6699 v 35.791 c 0,7.71486 4.15038,11.66994 11.86528,11.66994 z m -4.834,-11.32814 v -36.4746 c 0,-3.0273 1.709,-4.7363 4.7363,-4.7363 h 64.0137 c 3.0273,0 4.6875,1.709 4.6875,4.7363 v 36.4746 c 0,3.0762 -1.6602,4.7363 -4.6875,4.7363 H 21.5332 c -3.0273,0 -4.7363,-1.6601 -4.7363,-4.7363 z m 60.4004,-27.4414 c 2.6855,0 4.8339,-2.1973 4.8339,-4.8828 0,-2.6367 -2.1484,-4.834 -4.8339,-4.834 -2.6856,0 -4.834,2.1973 -4.834,4.834 0,2.6855 2.1484,4.8828 4.834,4.8828 z"
       id="path36"
       style="fill:#000000;fill-opacity:1;-sfsymbols-layer-tags:printer;-sfsymbols-motion-group:1" />
    <path
       class="monochrome-2 monochrome-3 multicolor-2:tintColor multicolor-3:tintColor hierarchical-2:primary hierarchical-3:primary SFSymbolsPreviewWireframe"
       d="m 32.4707,7.12891 h 42.1387 c 4.6875,0 7.1289,-2.14844 7.1289,-7.12891 v -31.7383 c 0,-4.9805 -2.4414,-7.1289 -7.1289,-7.1289 H 32.4707 c -4.3945,0 -7.1289,2.1484 -7.1289,7.1289 V 0 c 0,4.98047 2.4414,7.12891 7.1289,7.12891 z"
       id="path37"
       style="fill:#000000;fill-opacity:1;-sfsymbols-clear-behind:true;-sfsymbols-layer-tags:printer;-sfsymbols-motion-group:0" />
    <path
       class="monochrome-3 multicolor-3:tintColor hierarchical-3:primary SFSymbolsPreviewWireframe"
       d="m 34.7656,0.585938 c -1.5136,0 -2.3926,-0.830079 -2.3926,-2.441408 V -29.9316 c 0,-1.5625 0.879,-2.3926 2.3926,-2.3926 h 37.5489 c 1.5625,0 2.3437,0.8301 2.3437,2.3926 v 28.07613 c 0,1.611329 -0.7812,2.441408 -2.3437,2.441408 z M 40.8691,-19.873 h 25.4395 c 1.5137,0 2.6367,-1.1719 2.6367,-2.6856 0,-1.4648 -1.123,-2.5879 -2.6367,-2.5879 H 40.8691 c -1.5625,0 -2.7343,1.1231 -2.7343,2.5879 0,1.5137 1.1718,2.6856 2.7343,2.6856 z m 0,13.2812 h 25.4395 c 1.5137,0 2.6367,-1.12304 2.6367,-2.58789 0,-1.51371 -1.123,-2.68551 -2.6367,-2.68551 H 40.8691 c -1.5625,0 -2.7343,1.1718 -2.7343,2.68551 0,1.46485 1.1718,2.58789 2.7343,2.58789 z"
       id="path38"
       style="fill:#000000;fill-opacity:1;-sfsymbols-layer-tags:printer;-sfsymbols-motion-group:0" />
  </g>
  <g
     id="g42"
     transform="translate(-1405.8156,-619.7246)">
    <path
       class="monochrome-2 monochrome-3 multicolor-2:tintColor multicolor-3:tintColor hierarchical-2:primary hierarchical-3:primary SFSymbolsPreviewWireframe"
       d="m 1428.8553,703.12666 h 42.1387 c 4.6875,0 7.1289,-2.14844 7.1289,-7.12891 v -31.7383 c 0,-4.9805 -2.4414,-7.1289 -7.1289,-7.1289 h -42.1387 c -4.3945,0 -7.1289,2.1484 -7.1289,7.1289 v 31.7383 c 0,4.98047 2.4414,7.12891 7.1289,7.12891 z"
       id="path37-0"
       style="fill:#000000;fill-opacity:1;stroke:#000000;stroke-width:0.5;-sfsymbols-clear-behind:true;-sfsymbols-layer-tags:printer;-sfsymbols-motion-group:0" />
  </g>
  <path
     class="monochrome-3 multicolor-3:tintColor hierarchical-3:primary SFSymbolsPreviewWireframe"
     d="m 25.20618,76.81249 c -1.5136,0 -2.3926,-0.83008 -2.3926,-2.44141 V 46.29495 c 0,-1.5625 0.879,-2.3926 2.3926,-2.3926 h 37.5489 c 1.5625,0 2.3437,0.8301 2.3437,2.3926 v 28.07613 c 0,1.61133 -0.7812,2.44141 -2.3437,2.44141 z m 6.1035,-20.45894 h 25.4395 c 1.5137,0 2.6367,-1.1719 2.6367,-2.6856 0,-1.4648 -1.123,-2.5879 -2.6367,-2.5879 h -25.4395 c -1.5625,0 -2.7343,1.1231 -2.7343,2.5879 0,1.5137 1.1718,2.6856 2.7343,2.6856 z m 0,13.2812 h 25.4395 c 1.5137,0 2.6367,-1.12304 2.6367,-2.58789 0,-1.51371 -1.123,-2.68551 -2.6367,-2.68551 h -25.4395 c -1.5625,0 -2.7343,1.1718 -2.7343,2.68551 0,1.46485 1.1718,2.58789 2.7343,2.58789 z"
     id="path38-04-9"
     style="fill:#ffffff;fill-opacity:1;stroke:#000000;stroke-width:0.5;-sfsymbols-layer-tags:printer;-sfsymbols-motion-group:0" />
</svg>
