<?xml version="1.0" encoding="UTF-8" standalone="no"?>
<!--Generator: Apple Native CoreSVG 341-->

<svg
   version="1.1"
   viewBox="0 0 78.078865 77.157204"
   id="svg42"
   sodipodi:docname="music.note.list.svg"
   width="78.078865"
   height="77.157204"
   inkscape:version="1.4.2 (ebf0e940, 2025-05-08)"
   xmlns:inkscape="http://www.inkscape.org/namespaces/inkscape"
   xmlns:sodipodi="http://sodipodi.sourceforge.net/DTD/sodipodi-0.dtd"
   xmlns="http://www.w3.org/2000/svg"
   xmlns:svg="http://www.w3.org/2000/svg">
  <defs
     id="defs42" />
  <sodipodi:namedview
     id="namedview42"
     pagecolor="#ffffff"
     bordercolor="#666666"
     borderopacity="1.0"
     inkscape:showpageshadow="2"
     inkscape:pageopacity="0.0"
     inkscape:pagecheckerboard="0"
     inkscape:deskcolor="#d1d1d1"
     inkscape:zoom="1.0084848"
     inkscape:cx="285.57692"
     inkscape:cy="190.38462"
     inkscape:window-width="1664"
     inkscape:window-height="1027"
     inkscape:window-x="48"
     inkscape:window-y="25"
     inkscape:window-maximized="0"
     inkscape:current-layer="svg42" />
  <!--glyph: "10046C", point size: 100.0, font version: "20.0d10e1", template writer version: "138.0.0"-->
  <style
     id="style1">.monochrome-0 {-sfsymbols-motion-group:3;-sfsymbols-layer-tags:music.note.list}
.monochrome-1 {-sfsymbols-motion-group:2;-sfsymbols-layer-tags:music.note.list}
.monochrome-2 {-sfsymbols-motion-group:1;-sfsymbols-layer-tags:music.note.list}
.monochrome-3 {-sfsymbols-motion-group:0;-sfsymbols-layer-tags:music.note.list}

.multicolor-0:tintColor {-sfsymbols-motion-group:3;-sfsymbols-layer-tags:music.note.list}
.multicolor-1:tintColor {-sfsymbols-motion-group:2;-sfsymbols-layer-tags:music.note.list}
.multicolor-2:tintColor {-sfsymbols-motion-group:1;-sfsymbols-layer-tags:music.note.list}
.multicolor-3:tintColor {-sfsymbols-motion-group:0;-sfsymbols-layer-tags:music.note.list}

.hierarchical-0:secondary {-sfsymbols-motion-group:3;-sfsymbols-layer-tags:music.note.list}
.hierarchical-1:secondary {-sfsymbols-motion-group:2;-sfsymbols-layer-tags:music.note.list}
.hierarchical-2:secondary {-sfsymbols-motion-group:1;-sfsymbols-layer-tags:music.note.list}
.hierarchical-3:primary {-sfsymbols-motion-group:0;-sfsymbols-layer-tags:music.note.list}

.SFSymbolsPreviewWireframe {fill:none;opacity:1.0;stroke:black;stroke-width:0.5}
</style>
  <g
     id="g45"
     transform="translate(-1410.7883,-623.0931)">
    <path
       d="m 1412.5926,669.54751 c -1.815,-0.53456 -2.3692,-2.57075 -1.0896,-4.00311 l 0.7233,-0.80957 17.624,-0.0668 c 15.4226,-0.0585 17.7156,-0.0195 18.3574,0.31244 1.5245,0.78832 1.7749,2.68433 0.5204,3.93908 l -0.7731,0.77325 -17.2862,0.0437 c -10.1859,0.0258 -17.6107,-0.0519 -18.0762,-0.18897 z"
       id="path42"
       style="stroke-width:0.247897" />
    <path
       d="m 1412.3633,655.69154 c -1.3809,-0.55798 -2.0056,-2.51474 -1.1793,-3.69442 0.8937,-1.2759 0.7817,-1.26845 19.0722,-1.26845 14.8309,0 17.1169,0.0491 17.8206,0.38306 1.9271,0.91445 1.9271,3.52525 0,4.43971 -0.705,0.33453 -2.9852,0.38107 -17.9986,0.36734 -9.4552,-0.009 -17.4269,-0.1109 -17.7149,-0.22724 z"
       id="path43"
       style="stroke-width:0.247897" />
    <path
       d="m 1412.0465,641.70634 c -0.7021,-0.38915 -1.2457,-1.28948 -1.258,-2.08336 -0.012,-0.76348 0.6277,-1.958 1.217,-2.27338 0.3143,-0.16823 6.5136,-0.25525 18.1844,-0.25525 17.3143,0 17.7214,0.011 18.3359,0.4943 1.2795,1.00648 1.2902,2.95444 0.022,3.95225 -0.6431,0.50589 -0.8396,0.51129 -18.2793,0.5026 -14.1569,-0.007 -17.7459,-0.0735 -18.2217,-0.33716 z"
       id="path44"
       style="stroke-width:0.247897" />
    <path
       d="m 1450.766,700.03502 c -5.6037,-0.93509 -9.0321,-5.01636 -8.6909,-10.34592 0.1677,-2.6188 0.9183,-4.44071 2.5602,-6.21417 1.3796,-1.49017 3.5552,-2.81483 5.9295,-3.61033 0.6803,-0.22797 3.0786,-0.80252 5.3295,-1.27678 4.157,-0.87589 4.9812,-1.19008 5.4577,-2.08048 0.1847,-0.34509 0.2662,-7.30255 0.265,-22.62057 -9e-4,-12.16721 0.092,-22.6022 0.2069,-23.18888 0.2204,-1.12656 0.9674,-2.10917 2.0201,-2.65704 1.0797,-0.56198 22.3204,-5.11071 23.0829,-4.94324 0.3781,0.083 0.9693,0.486 1.3138,0.89547 l 0.6265,0.74448 v 8.23036 c 0,8.96164 0,8.9755 -1.4155,9.54026 -0.3804,0.15198 -4.9824,1.22708 -10.2267,2.38911 -5.79,1.28295 -9.6847,2.26226 -9.9159,2.49337 -0.3339,0.33376 -0.3972,2.8573 -0.5145,20.51351 -0.121,18.21857 -0.1751,20.27356 -0.5685,21.61176 -1.6372,5.56832 -5.8486,9.46745 -11.2697,10.43414 -2.1438,0.38228 -2.3799,0.38706 -4.1904,0.085 z"
       id="path45"
       style="stroke-width:0.247897" />
  </g>
</svg>
