<?xml version="1.0" encoding="UTF-8" standalone="no"?>
<!-- Created with Inkscape (http://www.inkscape.org/) -->

<svg
   width="29.94108mm"
   height="13.07058mm"
   viewBox="0 0 29.94108 13.07058"
   version="1.1"
   id="svg1"
   inkscape:version="1.4.2 (ebf0e940, 2025-05-08)"
   sodipodi:docname="recordingtape2.svg"
   inkscape:export-filename="recordingtape2.svg"
   inkscape:export-xdpi="96"
   inkscape:export-ydpi="96"
   xmlns:inkscape="http://www.inkscape.org/namespaces/inkscape"
   xmlns:sodipodi="http://sodipodi.sourceforge.net/DTD/sodipodi-0.dtd"
   xmlns="http://www.w3.org/2000/svg"
   xmlns:svg="http://www.w3.org/2000/svg">
  <sodipodi:namedview
     id="namedview1"
     pagecolor="#ffffff"
     bordercolor="#666666"
     borderopacity="1.0"
     inkscape:showpageshadow="2"
     inkscape:pageopacity="0.0"
     inkscape:pagecheckerboard="0"
     inkscape:deskcolor="#d1d1d1"
     inkscape:document-units="mm"
     inkscape:zoom="0.78216891"
     inkscape:cx="395.69458"
     inkscape:cy="407.8403"
     inkscape:window-width="1712"
     inkscape:window-height="1027"
     inkscape:window-x="0"
     inkscape:window-y="25"
     inkscape:window-maximized="0"
     inkscape:current-layer="layer1" />
  <defs
     id="defs1" />
  <g
     inkscape:label="Layer 1"
     inkscape:groupmode="layer"
     id="layer1">
    <path
       d="M 5.183769,12.907364 C 3.158781,12.473374 1.51122,11.171654 0.622935,9.3039344 0.169598,8.3507444 0,7.5931344 0,6.5212144 c 0,-2.86491 1.742704,-5.26044 4.529614,-6.22640003 0.65405,-0.2267 0.87958,-0.25759 1.901534,-0.26045 1.672695,-0.005 2.751031,0.34114 4.038573,1.29514003 2.732855,2.02492 3.386058,5.99348 1.452615,8.8254796 -0.202882,0.29717 -0.47789,0.6415 -0.611108,0.76518 -0.133217,0.12368 -0.242226,0.25934 -0.242226,0.30146 0,0.0421 1.773979,0.0766 3.942186,0.0766 2.168207,0 3.942186,-0.0255 3.942186,-0.0566 0,-0.0311 -0.210212,-0.28657 -0.467149,-0.56769 -0.5189,-0.56777 -1.204568,-1.8987796 -1.39864,-2.7150096 -0.17563,-0.73868 -0.150336,-2.32914 0.04868,-3.06099 1.095005,-4.02674003 5.482219,-6.04314 9.191309,-4.22441003 1.6447,0.80648003 2.75982,2.06962003 3.36085,3.80700003 0.23415,0.67687 0.2563,0.85614 0.25225,2.04066 -0.004,1.15726 -0.0318,1.38069 -0.25562,2.05277 -0.71162,2.1366796 -2.69872,3.8948396 -4.90725,4.3418996 -1.04502,0.21154 -18.602882,0.2039 -19.594038,-0.009 z m 2.487428,-1.74902 c 2.413899,-0.62874 3.894772,-2.8298896 3.579071,-5.3198796 -0.233653,-1.84287 -1.676849,-3.48308 -3.477392,-3.95206 -0.698288,-0.18189 -1.799669,-0.18189 -2.497958,0 -2.692082,0.70119 -4.214706,3.71164 -3.212015,6.35055 0.845079,2.2240296 3.325363,3.5160296 5.608294,2.9213896 z m 16.931747,-0.003 c 1.61152,-0.37986 2.9582,-1.6249196 3.44281,-3.1830196 0.25003,-0.8039 0.24969,-2.09806 0,-2.909 -0.61103,-1.97828 -2.44377,-3.31474 -4.55017,-3.31805 -2.57143,-0.004 -4.593592,1.87631 -4.786923,4.45124 -0.104484,1.3917 0.373591,2.64743 1.397608,3.67102 1.240975,1.2404796 2.801995,1.6874596 4.497465,1.2878096 z"
       id="path34"
       style="stroke-width:0.0927574" />
  </g>
</svg>
