<?xml version="1.0" encoding="UTF-8" standalone="no"?>
<!--Generator: Apple Native CoreSVG 341-->

<svg
   version="1.1"
   viewBox="0 0 78.380882 66.320282"
   id="svg33"
   sodipodi:docname="slider.horizontal.3.svg"
   width="78.380882"
   height="66.320282"
   inkscape:version="1.4.2 (ebf0e940, 2025-05-08)"
   xmlns:inkscape="http://www.inkscape.org/namespaces/inkscape"
   xmlns:sodipodi="http://sodipodi.sourceforge.net/DTD/sodipodi-0.dtd"
   xmlns="http://www.w3.org/2000/svg"
   xmlns:svg="http://www.w3.org/2000/svg">
  <defs
     id="defs33" />
  <sodipodi:namedview
     id="namedview33"
     pagecolor="#ffffff"
     bordercolor="#666666"
     borderopacity="1.0"
     inkscape:showpageshadow="2"
     inkscape:pageopacity="0.0"
     inkscape:pagecheckerboard="0"
     inkscape:deskcolor="#d1d1d1"
     inkscape:zoom="0.35655324"
     inkscape:cx="1040.5178"
     inkscape:cy="675.91589"
     inkscape:window-width="1744"
     inkscape:window-height="1027"
     inkscape:window-x="0"
     inkscape:window-y="25"
     inkscape:window-maximized="0"
     inkscape:current-layer="svg33" />
  <!--glyph: "100306", point size: 100.0, font version: "20.0d10e1", template writer version: "138.0.0"-->
  <style
     id="style1">.monochrome-0 {-sfsymbols-motion-group:0;-sfsymbols-layer-tags:slider.horizontal.3}

.multicolor-0:tintColor {-sfsymbols-motion-group:0;-sfsymbols-layer-tags:slider.horizontal.3}

.hierarchical-0:primary {-sfsymbols-motion-group:0;-sfsymbols-layer-tags:slider.horizontal.3}

.SFSymbolsPreviewWireframe {fill:none;opacity:1.0;stroke:black;stroke-width:0.5}
</style>
  <g
     id="Black-S"
     transform="translate(2879.69,696)">
    <path
       class="monochrome-0 multicolor-0:tintColor hierarchical-0:primary SFSymbolsPreviewWireframe"
       d="m 70.3613,2.92969 c 7.1778,0 13.0371,-5.85938 13.0371,-13.03709 0,-7.1778 -5.8105,-13.0371 -13.0371,-13.0371 -7.1777,0 -13.0371,5.8593 -13.0371,13.0371 0,7.17771 5.8594,13.03709 13.0371,13.03709 z m 0,-7.27539 c -3.1738,0 -5.7617,-2.58789 -5.7617,-5.7617 0,-3.2715 2.5879,-5.7617 5.7617,-5.7617 3.2715,0 5.7617,2.4902 5.7617,5.7617 0,3.17381 -2.4902,5.7617 -5.7617,5.7617 z M 61.7188,-16.4551 H 15.8691 c -3.4179,0 -6.10348,2.9785 -6.10348,6.3477 0,3.22263 2.73438,6.34763 6.10348,6.34763 h 45.8497 z m 29.8339,0 H 78.7109 v 12.69533 h 12.8418 c 3.418,0 6.1035,-3.02734 6.1035,-6.34763 0,-3.4668 -2.6367,-6.3477 -6.1035,-6.3477 z m -53.955,-6.6894 c 7.08,0 13.0371,-5.8594 13.0371,-13.0371 0,-7.1778 -5.8594,-13.0372 -13.0371,-13.0372 -7.1778,0 -13.0372,5.8594 -13.0372,13.0372 0,7.1777 5.8594,13.0371 13.0372,13.0371 z m 0,-7.2754 c -3.1739,0 -5.7618,-2.5879 -5.7618,-5.7617 0,-3.2715 2.5879,-5.7618 5.7618,-5.7618 3.2714,0 5.7617,2.4903 5.7617,5.7618 0,3.1738 -2.4903,5.7617 -5.7617,5.7617 z M 15.8691,-42.5293 c -3.4179,0 -6.10348,2.9785 -6.10348,6.3477 0,3.2226 2.73438,6.3476 6.10348,6.3476 h 13.8184 v -12.6953 z m 75.6836,0 H 45.7031 v 12.6953 h 45.8496 c 3.418,0 6.1035,-3.0273 6.1035,-6.3476 0,-3.4668 -2.6367,-6.3477 -6.1035,-6.3477 z m -21.1914,-6.6895 c 7.1778,0 13.0371,-5.8593 13.0371,-13.0371 0,-7.1777 -5.8593,-13.0371 -13.0371,-13.0371 -7.1777,0 -13.0371,5.8594 -13.0371,13.0371 0,7.1778 5.8594,13.0371 13.0371,13.0371 z m 0,-7.2753 c -3.1738,0 -5.7617,-2.5879 -5.7617,-5.7618 0,-3.2714 2.5879,-5.7617 5.7617,-5.7617 3.2715,0 5.7617,2.4903 5.7617,5.7617 0,3.1739 -2.4902,5.7618 -5.7617,5.7618 z M 61.7188,-68.6035 H 15.8691 c -3.4179,0 -6.10348,2.9785 -6.10348,6.3476 0,3.2227 2.73438,6.3477 6.10348,6.3477 h 45.8497 z m 29.8339,0 H 78.7109 v 12.6953 h 12.8418 c 3.418,0 6.1035,-3.0273 6.1035,-6.3477 0,-3.4668 -2.6367,-6.3476 -6.1035,-6.3476 z"
       id="path31" />
  </g>
  <g
     id="Regular-S"
     transform="translate(-9.51562,68.3652)"
     style="fill:#000000;fill-opacity:1">
    <g
       id="g47"
       style="fill:#000000;fill-opacity:1">
      <path
         class="monochrome-0 multicolor-0:tintColor hierarchical-0:primary SFSymbolsPreviewWireframe"
         d="m 62.0117,-2.29492 c 5.2735,0 9.5703,-4.29688 9.5703,-9.57028 0,-5.2246 -4.2968,-9.5215 -9.5703,-9.5215 -5.2734,0 -9.5703,4.2969 -9.5703,9.5215 0,5.2734 4.2969,9.57028 9.5703,9.57028 z m 0,-5.22461 c -2.4414,0 -4.3457,-1.9043 -4.3457,-4.34567 0,-2.4414 1.9043,-4.3457 4.3457,-4.3457 2.4414,0 4.3457,1.9043 4.3457,4.3457 0,2.44137 -1.9043,4.34567 -4.3457,4.34567 z M 56.0059,-15.3809 H 13.2812 c -1.9531,0 -3.51558,1.5625 -3.51558,3.5157 0,2.00192 1.56248,3.51559 3.51558,3.51559 h 42.7247 z m 28.2714,0 H 68.75 v 7.03129 h 15.5273 c 1.8067,0 3.3692,-1.51367 3.3692,-3.51559 0,-1.9532 -1.5625,-3.5157 -3.3692,-3.5157 z M 35.498,-25.6348 c 5.2735,0 9.5704,-4.2968 9.5704,-9.5703 0,-5.2246 -4.2969,-9.5215 -9.5704,-9.5215 -5.2734,0 -9.5703,4.2969 -9.5703,9.5215 0,5.2735 4.2969,9.5703 9.5703,9.5703 z m 0,-5.2246 c -2.4414,0 -4.3457,-1.9043 -4.3457,-4.3457 0,-2.4414 1.9043,-4.3457 4.3457,-4.3457 2.4415,0 4.3458,1.9043 4.3458,4.3457 0,2.4414 -1.9043,4.3457 -4.3458,4.3457 z m -22.4121,-7.8613 c -1.7578,0 -3.32028,1.5625 -3.32028,3.5156 0,2.002 1.56248,3.5156 3.32028,3.5156 h 15.7227 v -7.0312 z m 71.045,0 H 41.5527 v 7.0312 h 42.5782 c 1.9531,0 3.5156,-1.5136 3.5156,-3.5156 0,-1.9531 -1.5625,-3.5156 -3.5156,-3.5156 z M 62.0117,-48.9746 c 5.2735,0 9.5703,-4.2969 9.5703,-9.5703 0,-5.2735 -4.2968,-9.5703 -9.5703,-9.5703 -5.2734,0 -9.5703,4.2968 -9.5703,9.5703 0,5.2734 4.2969,9.5703 9.5703,9.5703 z m 0,-5.2246 c -2.4414,0 -4.3457,-1.9531 -4.3457,-4.3457 0,-2.4903 1.9043,-4.3457 4.3457,-4.3457 2.4414,0 4.3457,1.8554 4.3457,4.3457 0,2.3926 -1.9043,4.3457 -4.3457,4.3457 z m -5.7129,-7.8613 H 13.2812 c -1.9531,0 -3.51558,1.5625 -3.51558,3.5156 0,1.9531 1.56248,3.5156 3.51558,3.5156 h 43.0176 z m 27.9785,0 H 68.0664 v 7.0312 h 16.2109 c 1.8067,0 3.3692,-1.5625 3.3692,-3.5156 0,-1.9531 -1.5625,-3.5156 -3.3692,-3.5156 z"
         id="path32"
         style="fill:#000000;fill-opacity:1" />
    </g>
  </g>
</svg>
